<svg width="22" height="21" viewBox="0 0 22 21" fill="none" xmlns="http://www.w3.org/2000/svg">
<g id="icon-instagram.6232efef.svg">
<path id="Vector" d="M18.7968 4.17416C18.6306 3.74315 18.3759 3.35174 18.0493 3.02511C17.7227 2.69847 17.3313 2.44385 16.9002 2.27765C16.549 2.14068 16.0199 1.97796 15.0447 1.93348C13.9911 1.88548 13.6762 1.87494 11.0082 1.87494C8.3402 1.87494 8.02411 1.88548 6.97049 1.93348C5.99648 1.97796 5.46734 2.14068 5.11496 2.27765C4.68425 2.44436 4.29309 2.69913 3.96652 3.02571C3.63995 3.35228 3.38515 3.74345 3.21845 4.17416C3.08148 4.52536 2.91992 5.05569 2.87427 6.0297C2.82627 7.08332 2.8169 7.39941 2.8169 10.0674C2.8169 12.7354 2.82627 13.0515 2.87427 14.1039C2.91992 15.0791 3.08148 15.6071 3.21845 15.9594C3.38465 16.3904 3.63926 16.7819 3.9659 17.1085C4.29254 17.4352 4.68396 17.6898 5.11496 17.856C5.46617 17.9929 5.99648 18.1557 6.97049 18.2001C8.02411 18.2481 8.3402 18.2587 11.0082 18.2587C13.6762 18.2587 13.9923 18.2481 15.0447 18.2001C16.0199 18.1557 16.549 17.9929 16.9002 17.856C17.3315 17.6902 17.7232 17.4358 18.0499 17.1091C18.3766 16.7824 18.631 16.3907 18.7968 15.9594C18.9337 15.6082 19.0965 15.0791 19.1409 14.1039C19.1889 13.0503 19.1995 12.7354 19.1995 10.0674C19.1995 7.39941 19.1889 7.08332 19.1409 6.0297C19.0965 5.05569 18.9337 4.52653 18.7968 4.17416ZM11.0082 15.1973C9.9933 15.1973 9.00121 14.8964 8.15737 14.3325C7.31354 13.7686 6.65587 12.9672 6.26755 12.0296C5.87922 11.0919 5.77767 10.0601 5.97575 9.06477C6.17383 8.0694 6.66264 7.15511 7.38036 6.43756C8.09808 5.72001 9.01246 5.23142 10.0079 5.03356C11.0033 4.83571 12.035 4.93749 12.9726 5.32604C13.9102 5.71458 14.7115 6.37241 15.2751 7.21637C15.8388 8.06033 16.1395 9.05251 16.1393 10.0674C16.1393 10.7412 16.0066 11.4083 15.7487 12.0308C15.4908 12.6533 15.1128 13.2188 14.6364 13.6952C14.1599 14.1716 13.5942 14.5495 12.9717 14.8072C12.3492 15.0649 11.682 15.1975 11.0082 15.1973ZM16.3418 5.93253C16.1047 5.93253 15.873 5.86221 15.6758 5.73049C15.4787 5.59876 15.325 5.41155 15.2343 5.1925C15.1436 4.97346 15.1198 4.73241 15.1661 4.49987C15.2123 4.26733 15.3265 4.05374 15.4942 3.88609C15.6618 3.71843 15.8754 3.60426 16.108 3.558C16.3405 3.51175 16.5815 3.53549 16.8006 3.62623C17.0196 3.71696 17.2069 3.87061 17.3386 4.06775C17.4703 4.26489 17.5406 4.49665 17.5406 4.73375C17.5406 5.05168 17.4143 5.35659 17.1895 5.58141C16.9647 5.80622 16.6598 5.93253 16.3418 5.93253ZM11.0082 6.7368C10.3495 6.7368 9.70552 6.93214 9.15781 7.29811C8.6101 7.66408 8.1832 8.18423 7.93112 8.79282C7.67903 9.40141 7.61307 10.0711 7.74159 10.7172C7.8701 11.3632 8.18731 11.9567 8.6531 12.4225C9.11889 12.8883 9.71235 13.2055 10.3584 13.334C11.0045 13.4625 11.6742 13.3966 12.2828 13.1445C12.8913 12.8924 13.4115 12.4655 13.7775 11.9178C14.1435 11.3701 14.3388 10.7261 14.3388 10.0674C14.3388 9.18407 13.9879 8.33692 13.3633 7.71231C12.7387 7.0877 11.8915 6.7368 11.0082 6.7368ZM20.9391 14.187C20.8911 15.25 20.7214 15.9758 20.4708 16.6115C20.2142 17.2765 19.8212 17.8805 19.3171 18.3846C18.8131 18.8886 18.2091 19.2816 17.5441 19.5382C16.9096 19.7852 16.1826 19.955 15.1196 20.0065C14.0567 20.058 13.7148 20.0674 11 20.0674C8.28518 20.0674 7.94568 20.0557 6.88035 20.0065C5.81503 19.9573 5.09037 19.7888 4.45469 19.5382C3.78945 19.2819 3.18531 18.8891 2.68121 18.385C2.17711 17.8809 1.78426 17.2768 1.52798 16.6115C1.28096 15.9758 1.11239 15.25 1.0597 14.187C1.00702 13.1241 1 12.7822 1 10.0674C1 7.35258 1.01171 7.01306 1.0597 5.94773C1.1077 4.88241 1.27745 4.15776 1.52798 3.52208C1.78426 2.85684 2.17711 2.25271 2.68121 1.74861C3.18531 1.24452 3.78945 0.851644 4.45469 0.595363C5.09037 0.348348 5.8162 0.178599 6.88035 0.127089C7.94451 0.0755788 8.28518 0.0673828 11 0.0673828C13.7148 0.0673828 14.0531 0.0779201 15.1196 0.127089C16.1861 0.176258 16.9096 0.344836 17.5441 0.595363C18.2091 0.852025 18.8131 1.24502 19.3171 1.74907C19.8212 2.25312 20.2142 2.85706 20.4708 3.52208C20.7167 4.15776 20.8864 4.88358 20.9391 5.94773C20.9918 7.01189 21 7.35258 21 10.0674C21 12.7822 20.9883 13.1205 20.9391 14.187Z" fill="white"/>
</g>
</svg>
