<svg width="26" height="17" viewBox="0 0 26 17" fill="none" xmlns="http://www.w3.org/2000/svg">
<g id="icon-youtube.7a99525c.svg">
<path id="Vector" d="M24.4989 2.70807C24.3634 2.19727 24.0961 1.73103 23.7237 1.35603C23.3514 0.981026 22.8871 0.710419 22.3772 0.571305C20.5048 0.0674043 13 0.0673828 13 0.0673828C13 0.0673828 5.49518 0.0674043 3.62414 0.571305C3.11432 0.710419 2.64999 0.981026 2.27765 1.35603C1.9053 1.73103 1.63801 2.19727 1.50253 2.70807C1 4.5915 1 8.5222 1 8.5222C1 8.5222 1 12.4515 1.50253 14.3363C1.63797 14.847 1.90527 15.3131 2.27764 15.6879C2.65001 16.0627 3.11436 16.333 3.62414 16.4717C5.49518 16.977 13 16.977 13 16.977C13 16.977 20.5048 16.977 22.3772 16.4717C22.887 16.333 23.3514 16.0627 23.7237 15.6879C24.0961 15.3131 24.3634 14.847 24.4989 14.3363C25 12.4515 25 8.5222 25 8.5222C25 8.5222 25 4.5915 24.4989 2.70807ZM10.5466 12.0922V4.95495L16.8192 8.52358L10.5466 12.0922Z" fill="white"/>
</g>
</svg>
