<svg width="20" height="19" viewBox="0 0 20 19" fill="none" xmlns="http://www.w3.org/2000/svg">
<g id="icon-linkedin.4a36c8bd.svg" clip-path="url(#clip0_2_341)">
<path id="Vector" fill-rule="evenodd" clip-rule="evenodd" d="M2.551 0.0673828C1.29581 0.0673828 0.475156 0.96673 0.500574 2.16746C0.475156 3.31251 1.29581 4.23967 2.52559 4.23967C3.80741 4.23967 4.62807 3.31251 4.62807 2.16746C4.60265 0.96673 3.80741 0.0673828 2.551 0.0673828ZM4.49978 6.06251H0.603473V18.0625H4.49978V6.06251ZM12.2673 6.1687C12.8727 5.90442 13.5275 5.77248 14.188 5.78172C16.7468 5.78172 18.6737 7.47388 18.675 11.1681V18.0674H14.7786V11.6522C14.7786 10.0375 14.2146 8.93485 12.8057 8.93485C11.7284 8.93485 11.0881 9.67805 10.8315 10.3958C10.7202 10.7083 10.6681 11.0387 10.6778 11.3702V18.0638H6.78146V6.06376H10.6778V7.31412C11.12 6.82349 11.6619 6.43297 12.2673 6.1687Z" fill="white"/>
</g>
<defs>
<clipPath id="clip0_2_341">
<rect width="19" height="19" fill="white" transform="translate(0.5)"/>
</clipPath>
</defs>
</svg>
